<svg xmlns="http://www.w3.org/2000/svg" width="14.222" height="14.68" viewBox="0 0 14.222 14.68">
  <g id="icon" transform="translate(0 0)">
    <g id="calendar" transform="translate(0 0)">
      <g id="Group_8" data-name="Group 8" transform="translate(0)">
        <path id="Path_3" data-name="Path 3" d="M13.441,2.637v.734a1.357,1.357,0,0,1-1.347,1.353h-.069a1.362,1.362,0,0,1-1.353-1.353V2.54H9.2v.831A1.362,1.362,0,0,1,7.846,4.724H7.778A1.357,1.357,0,0,1,6.43,3.371V2.54h-1.5v.831A1.345,1.345,0,0,1,3.6,4.724H3.53A1.352,1.352,0,0,1,2.189,3.371V2.649A2.142,2.142,0,0,0,.716,4.692v9.572a2.141,2.141,0,0,0,2.148,2.143h9.928a2.139,2.139,0,0,0,2.146-2.143V4.692A2.155,2.155,0,0,0,13.441,2.637Zm.432,11.429a1.244,1.244,0,0,1-1.241,1.248h-9.6a1.246,1.246,0,0,1-1.243-1.248v-6.8a.839.839,0,0,1,.846-.84h10.4a.837.837,0,0,1,.844.84v6.8Z" transform="translate(-0.716 -1.727)" fill="#fff"/>
        <path id="Path_4" data-name="Path 4" d="M8.007,2.338h.068A.691.691,0,0,0,8.6,2.1a.684.684,0,0,0,.168-.453h0V.694h0A.7.7,0,0,0,8.572.2s0,0,0,0,0,0,0,0A.7.7,0,0,0,8.074,0H8.006a.7.7,0,0,0-.495.2s0,0,0,0L7.5.2a.7.7,0,0,0-.2.492h0v.952h0a.687.687,0,0,0,.172.453A.7.7,0,0,0,8.007,2.338Z" transform="translate(-5.191 -0.002)" fill="#fff"/>
        <path id="Path_5" data-name="Path 5" d="M20.854,2.227l.006,0s.006,0,.007,0a.7.7,0,0,0,.388.111h.068a.691.691,0,0,0,.332-.078s0,0,0,0,0,0,0,0a.7.7,0,0,0,.356-.612V.695a.7.7,0,0,0-.274-.56s0,0,0,0V.137A.689.689,0,0,0,21.324,0h-.068a.7.7,0,0,0-.471.177s0,0,0,0l-.009,0A.7.7,0,0,0,20.543.7v.953A.705.705,0,0,0,20.854,2.227Z" transform="translate(-14.193 -0.002)" fill="#fff"/>
        <path id="Path_6" data-name="Path 6" d="M34.558,2.337h.068a.708.708,0,0,0,.537-.239.69.69,0,0,0,.175-.453h0V.693h0a.708.708,0,0,0-.37-.616l-.006,0L34.909.05l-.009,0L34.887.041l-.02-.007-.01,0c-.007,0-.015,0-.022,0A.7.7,0,0,0,34.626,0h-.068a.672.672,0,0,0-.1,0,.693.693,0,0,0-.591.689v.953A.685.685,0,0,0,34.558,2.337Z" transform="translate(-23.248 0)" fill="#fff"/>
      </g>
    </g>
    <ellipse id="Ellipse_6" data-name="Ellipse 6" cx="1.295" cy="1.295" rx="1.295" ry="1.295" transform="translate(2.519 7.545)" fill="#fff"/>
    <ellipse id="Ellipse_7" data-name="Ellipse 7" cx="1.295" cy="1.295" rx="1.295" ry="1.295" transform="translate(5.971 7.545)" fill="#fff"/>
    <ellipse id="Ellipse_8" data-name="Ellipse 8" cx="1.295" cy="1.295" rx="1.295" ry="1.295" transform="translate(9.424 7.545)" fill="#fff"/>
  </g>
</svg>
