<svg xmlns="http://www.w3.org/2000/svg" width="16.445" height="13.156" viewBox="0 0 16.445 13.156">
  <g id="photo-camera" transform="translate(0 -10)">
    <g id="Group_138" data-name="Group 138" transform="translate(0 10)">
      <path id="Path_134" data-name="Path 134" d="M8.222,14.933A2.467,2.467,0,1,0,10.689,17.4,2.467,2.467,0,0,0,8.222,14.933ZM14.8,12.467H12.827A.732.732,0,0,1,12.178,12l-.51-1.531A.733.733,0,0,0,11.018,10H5.427a.732.732,0,0,0-.649.468L4.267,12a.733.733,0,0,1-.649.468H1.644A1.649,1.649,0,0,0,0,14.111v7.4a1.649,1.649,0,0,0,1.644,1.644H14.8a1.649,1.649,0,0,0,1.644-1.644v-7.4A1.649,1.649,0,0,0,14.8,12.467ZM8.222,21.511A4.111,4.111,0,1,1,12.334,17.4,4.111,4.111,0,0,1,8.222,21.511Zm6-6.25a.576.576,0,1,1,.576-.576A.576.576,0,0,1,14.225,15.261Z" transform="translate(0 -10)" fill="#030104"/>
    </g>
  </g>
</svg>
