<svg xmlns="http://www.w3.org/2000/svg" width="22.004" height="29.35" viewBox="0 0 22.004 29.35">
  <g id="people" transform="translate(-64.075 0)">
    <g id="Group_52" data-name="Group 52" transform="translate(64.075 0)">
      <path id="Path_26" data-name="Path 26" d="M85.995,10.5a.437.437,0,0,0-.375-.179l-.6.03v-5.6a.437.437,0,0,0-.437-.437H83.372a.437.437,0,0,0-.437.437v5.706l-.072,0h0l-4.195.181-1.65-1.582a2.281,2.281,0,0,0-.392-1.666,2.334,2.334,0,0,0-.266-.315l.2-1.379a1.392,1.392,0,0,0,1.3-1.337l.1-2.861A1.394,1.394,0,0,0,76.616.06L74.982,0a1.392,1.392,0,0,0-1.44,1.34l-.1,2.861a1.382,1.382,0,0,0,.373,1,1.424,1.424,0,0,0,.132.125l-.161.885-.543-.1a1,1,0,0,0-.123-.013L73.4,4.485a1,1,0,0,0-.811-1.155l-2.251-.395a1,1,0,0,0-1.155.81l-.131.751-.8-.2a.437.437,0,0,0-.536.346l-.856,4.7a.437.437,0,0,0,.328.5l.887.214-.285,1.624a1,1,0,0,0,.811,1.155l2.251.395a1,1,0,0,0,.123.013l-.336,1.916-1.4,4.782-3.9,3.734,0,0,0,0L64.2,24.82a.437.437,0,0,0,0,.618l3.07,3.07a.437.437,0,0,0,.309.128h0a.437.437,0,0,0,.309-.129l.343-.346a1.131,1.131,0,0,0,.084-1.5l-.692-.874,4.017-3.9,0,0a2,2,0,0,0,.455-.761l1.12-4.047L75.5,21.105v7.388a.437.437,0,0,0,.437.437h4.342a.437.437,0,0,0,.437-.439l0-.487a1.131,1.131,0,0,0-1-1.118l-1.141-.133V20.772a2,2,0,0,0-.216-.86l-2.478-4.374.532-3.038.958.958a.517.517,0,0,0,.337.137h.019l5.205-.224V28.913a.437.437,0,0,0,.437.437h1.213a.437.437,0,0,0,.437-.437V13.282a.436.436,0,0,0,.227-.243l.8-2.129A.437.437,0,0,0,85.995,10.5ZM74.416,1.372a.517.517,0,0,1,.516-.5h.019l1.634.059a.511.511,0,0,1,.332.139,5.318,5.318,0,0,1-2.537,1.313Zm-.069,1.919A7.07,7.07,0,0,0,77.059,2.12l-.08,2.21a.519.519,0,0,1-.535.5l-1.634-.059a.513.513,0,0,1-.159-.032.43.43,0,0,0-.081-.038.525.525,0,0,1-.119-.1.513.513,0,0,1-.139-.37Zm1.329,2.383-.126.883a2.31,2.31,0,0,0-.407-.111l-.5-.087.131-.717h0ZM68.228,9.2l-.432-.1.7-3.834.406.1Zm.526,2.78a.125.125,0,0,1-.1-.143L70.044,3.9a.125.125,0,0,1,.143-.1l2.251.395a.125.125,0,0,1,.1.143l-1.019,5.817-.372,2.121a.125.125,0,0,1-.143.1Zm-1.12,15.229a.256.256,0,0,1-.019.339l-.034.034L65.13,25.129l.479-.479L66.7,26.022h0ZM71.26,20.9a.65.65,0,0,1-.13.249c-.008.01-.016.021-.024.031a.655.655,0,0,1-.073.09L67.082,25.1l-.845-1.067,3.7-3.54a.438.438,0,0,0,.117-.193l1.327-4.541,1.219.214.018.032Zm8.357,6.855a.256.256,0,0,1,.226.253v.048H76.377v-.677Zm-1.751-15.04L73.809,8.657a.437.437,0,1,0-.618.618l2.47,2.47-.665,3.8a.437.437,0,0,0,.05.291L77.6,20.347a.649.649,0,0,1,.084.268c0,.013,0,.026.005.039a.654.654,0,0,1,.012.118v5.879L76.377,26.5V20.99a.437.437,0,0,0-.057-.216l-2.856-5.041h0l-.175-.308-.011-.023-.007-.015a.437.437,0,0,0-.317-.237l-1.381-.242,1.372-7.832a.125.125,0,0,1,.143-.1l.928.163.04.009.046.006.89.156a1.413,1.413,0,0,1,.918.586,1.451,1.451,0,0,1,.131.228l-.554-.531a.437.437,0,0,0-.605.631L78.2,11.4a.439.439,0,0,0,.321.121l3.944-.17.05,1.162Zm5.943-7.527h.339v5.195h-.339Zm.339,23.289h-.339V13.369h.339Zm.387-16.02-1.148.028-.051-1.173,1.081-.055h.167a.435.435,0,0,0,.108-.014l.3-.015Z" transform="translate(-64.075 0)" fill="#fff"/>
    </g>
  </g>
</svg>
