<svg xmlns="http://www.w3.org/2000/svg" width="29" height="28.801" viewBox="0 0 29 28.801">
  <g id="tent" transform="translate(0 -1.66)">
    <g id="Group_43" data-name="Group 43" transform="translate(20.5 29.501)">
      <g id="Group_42" data-name="Group 42">
        <rect id="Rectangle_30" data-name="Rectangle 30" width="0.96" height="0.96" fill="#fff"/>
      </g>
    </g>
    <g id="Group_45" data-name="Group 45" transform="translate(17.199 22.075)">
      <g id="Group_44" data-name="Group 44" transform="translate(0 0)">
        <rect id="Rectangle_31" data-name="Rectangle 31" width="0.96" height="7.087" transform="translate(0 0.455) rotate(-28.3)" fill="#fff"/>
      </g>
    </g>
    <g id="Group_47" data-name="Group 47" transform="translate(0 8.858)">
      <g id="Group_46" data-name="Group 46" transform="translate(0 0)">
        <path id="Path_23" data-name="Path 23" d="M5.761,128.21l.679-.679L3.7,124.792v-1.523l2.061,2.061.679-.679-2.88-2.88,0,0a.468.468,0,0,0-.661-.018l-.015.015L0,124.652l.679.679,2.061-2.061v1.523L0,127.531l.679.679,2.061-2.061v1.523L0,130.411l.679.679,2.061-2.061v1.523L0,133.292l.679.679L2.74,131.91v11.322H3.7V131.91l2.061,2.061.679-.679L3.7,130.552v-1.523l2.061,2.061.679-.679L3.7,127.672v-1.523Z" transform="translate(0 -121.629)" fill="#fff"/>
      </g>
    </g>
    <g id="Group_49" data-name="Group 49" transform="translate(4.66 6.458)">
      <g id="Group_48" data-name="Group 48" transform="translate(0 0)">
        <path id="Path_24" data-name="Path 24" d="M101.33,92.53l.679-.679-2.739-2.739V87.589l2.061,2.061.679-.679-2.88-2.88,0,0a.468.468,0,0,0-.661-.018l-.015.015-2.88,2.88.679.679,2.061-2.061v1.523L95.57,91.851l.679.679,2.061-2.061v1.523L95.57,94.732l.679.679,2.061-2.061v4.6L97.3,95.826a.48.48,0,0,0-.432-.275h-6.24V91.91L92.69,93.97l.679-.679-2.739-2.739V89.03L92.69,91.09l.679-.679-2.739-2.739V86.149L92.69,88.21l.679-.679-2.739-2.739V83.269L92.69,85.33l.679-.679-2.88-2.88,0,0a.468.468,0,0,0-.661-.018l-.015.015-2.88,2.88.679.679,2.061-2.061v1.523L86.93,87.531l.679.679,2.061-2.061v1.523L86.93,90.411l.679.679,2.061-2.061v1.523L86.93,93.292l.679.679,2.061-2.061v3.641h-6.72a.474.474,0,0,0-.353.161.415.415,0,0,0-.072.1l-4.8,9.12a.48.48,0,0,0,.425.7h14.4v-.96H88.037l-4.293-8.16H96.566l3.866,8.16h-5v.96h5.76a.48.48,0,0,0,.432-.685l-2.352-4.969V93.35l2.061,2.061.679-.679-2.739-2.739V90.47ZM82.469,104.671H78.944l3.525-6.7Zm4.485,0H83.429v-6.7Z" transform="translate(-77.669 -81.629)" fill="#fff"/>
      </g>
    </g>
    <g id="Group_51" data-name="Group 51" transform="translate(5.62 1.66)">
      <g id="Group_50" data-name="Group 50" transform="translate(0 0)">
        <path id="Path_25" data-name="Path 25" d="M97.264,1.66a.48.48,0,0,0-.339.819,2.8,2.8,0,0,1,.9,1.714A1.477,1.477,0,0,1,96.2,5.826h0a2.8,2.8,0,0,1-1.714-.9.48.48,0,0,0-.819.339,3.6,3.6,0,1,0,3.6-3.6Zm2.377,4.751a2.64,2.64,0,0,1-4.752,0,3.163,3.163,0,0,0,1.236.367,2.472,2.472,0,0,0,1.958-.7,2.671,2.671,0,0,0,.333-3.2A2.64,2.64,0,0,1,99.642,6.411Z" transform="translate(-93.664 -1.66)" fill="#fff"/>
      </g>
    </g>
  </g>
</svg>
