<svg xmlns="http://www.w3.org/2000/svg" width="28.656" height="28.656" viewBox="0 0 28.656 28.656">
  <g id="Group_40" data-name="Group 40" transform="translate(0 0)">
    <g id="Group_39" data-name="Group 39">
      <path id="Path_11" data-name="Path 11" d="M65.194,341.333a1.194,1.194,0,1,0,1.194,1.194A1.2,1.2,0,0,0,65.194,341.333Z" transform="translate(-60.418 -322.229)" fill="#fff"/>
      <path id="Path_12" data-name="Path 12" d="M171.861,64a1.194,1.194,0,1,0,1.194,1.194A1.2,1.2,0,0,0,171.861,64Z" transform="translate(-161.115 -60.418)" fill="#fff"/>
      <path id="Path_13" data-name="Path 13" d="M346.11,106.667a4.781,4.781,0,0,0-4.776,4.776c0,1.78,2.051,4.973,3.333,6.8a.585.585,0,0,0-.188.223,1.383,1.383,0,0,1,.028,1.542.6.6,0,0,0,.8.267l1.065-.533h0s0-.006.008-.008a.594.594,0,0,0,.2-.163c.44-.575,4.3-5.684,4.3-8.124A4.781,4.781,0,0,0,346.11,106.667Zm0,11.538c-1.312-1.806-3.582-5.242-3.582-6.762a3.582,3.582,0,0,1,7.164,0C349.692,112.963,347.422,116.4,346.11,118.2Z" transform="translate(-322.23 -100.697)" fill="#fff"/>
      <path id="Path_14" data-name="Path 14" d="M406.528,170.667a1.194,1.194,0,1,0,1.194,1.194A1.2,1.2,0,0,0,406.528,170.667Z" transform="translate(-382.648 -161.115)" fill="#fff"/>
      <path id="Path_15" data-name="Path 15" d="M6.234,288.885c1.284-1.828,3.318-5,3.318-6.775a4.776,4.776,0,0,0-9.552,0c0,2.44,3.862,7.549,4.3,8.124a.58.58,0,0,0,.118.1.473.473,0,0,0,.356.137h0c.014,0,.027-.009.041-.01a.6.6,0,0,0,.224-.053h0l1.068-.534a.6.6,0,0,0,.123-.986Zm-1.458-.013c-1.312-1.806-3.582-5.242-3.582-6.762a3.582,3.582,0,0,1,7.164,0C8.358,283.63,6.088,287.066,4.776,288.871Z" transform="translate(0 -261.812)" fill="#fff"/>
      <path id="Path_16" data-name="Path 16" d="M331.763,346.449l-1.885.943a.6.6,0,0,0,.534,1.068l1.885-.943a.6.6,0,0,0-.534-1.068Z" transform="translate(-311.103 -327)" fill="#fff"/>
      <path id="Path_17" data-name="Path 17" d="M129.649,447.51l-1.885.943a.6.6,0,0,0,.534,1.068l1.885-.943a.6.6,0,0,0-.534-1.068Z" transform="translate(-120.301 -422.404)" fill="#fff"/>
      <path id="Path_18" data-name="Path 18" d="M264.388,380.126l-1.885.943a.6.6,0,0,0,.534,1.068l1.885-.943a.6.6,0,0,0-.534-1.068Z" transform="translate(-247.499 -358.792)" fill="#fff"/>
      <path id="Path_19" data-name="Path 19" d="M197.023,413.818l-1.885.943a.6.6,0,0,0,.534,1.068l1.885-.943a.6.6,0,0,0-.534-1.068Z" transform="translate(-183.905 -390.598)" fill="#fff"/>
      <path id="Path_20" data-name="Path 20" d="M239.979,240.307a.6.6,0,0,0,.3.791l2.191,1a.6.6,0,0,0,.494-1.087l-2.191-1A.6.6,0,0,0,239.979,240.307Z" transform="translate(-226.497 -226.527)" fill="#fff"/>
      <path id="Path_21" data-name="Path 21" d="M321.037,277.756a.6.6,0,0,0,.248-1.14l-2.192-1a.6.6,0,1,0-.494,1.087l2.192,1A.592.592,0,0,0,321.037,277.756Z" transform="translate(-300.436 -260.143)" fill="#fff"/>
      <path id="Path_22" data-name="Path 22" d="M112.529,13.628a.6.6,0,0,0,.248-1.14l-.412-.187c1.131-1.544,3.854-5.473,3.854-7.524a4.776,4.776,0,0,0-9.552,0c0,2.44,3.862,7.549,4.3,8.124.005.007.014.009.019.016a2.056,2.056,0,0,0,.2.159l.008.006,1.087.494A.592.592,0,0,0,112.529,13.628Zm-4.668-8.852a3.582,3.582,0,0,1,7.164,0c0,1.52-2.27,4.956-3.582,6.762C110.131,9.732,107.861,6.3,107.861,4.776Z" transform="translate(-100.697)" fill="#fff"/>
    </g>
  </g>
</svg>
