<svg id="calendar_1_" data-name="calendar (1)" xmlns="http://www.w3.org/2000/svg" width="18" height="18" viewBox="0 0 18 18">
  <g id="Group_90" data-name="Group 90">
    <g id="Group_89" data-name="Group 89">
      <path id="Path_68" data-name="Path 68" d="M3.413,197.2a.7.7,0,0,0-.994,0l-1.8,1.814a2.1,2.1,0,0,0,0,2.99l1.834,1.816a.7.7,0,1,0,.989-1l-1.626-1.61H7.488a.7.7,0,0,0,0-1.406H1.818l1.6-1.615A.7.7,0,0,0,3.413,197.2Z" transform="translate(0 -190.075)" fill="#fff"/>
      <path id="Path_69" data-name="Path 69" d="M15.188,1.406h-.879V.7A.7.7,0,0,0,12.9.7v.7H9.738V.7A.7.7,0,0,0,8.332.7v.7h-3.2V.7A.7.7,0,0,0,3.727.7v.7H2.813A2.816,2.816,0,0,0,0,4.219V5.8a.7.7,0,0,0,1.406,0V4.219A1.408,1.408,0,0,1,2.813,2.813h.914v.7a.7.7,0,0,0,1.406,0v-.7h3.2v.7a.7.7,0,0,0,1.406,0v-.7H12.9v.7a.7.7,0,0,0,1.406,0v-.7h.879a1.408,1.408,0,0,1,1.406,1.406V15.188a1.408,1.408,0,0,1-1.406,1.406H2.813a1.408,1.408,0,0,1-1.406-1.406.7.7,0,0,0-1.406,0A2.816,2.816,0,0,0,2.813,18H15.188A2.816,2.816,0,0,0,18,15.188V4.219A2.816,2.816,0,0,0,15.188,1.406Z" fill="#fff"/>
    </g>
  </g>
</svg>
