<svg id="Group_88" data-name="Group 88" xmlns="http://www.w3.org/2000/svg" width="18" height="18" viewBox="0 0 18 18">
  <g id="Group_87" data-name="Group 87">
    <path id="Path_66" data-name="Path 66" d="M283.739,203.823a.7.7,0,0,0,.994,0l1.834-1.816a2.1,2.1,0,0,0,0-2.989l-1.8-1.814a.7.7,0,1,0-1,.99l1.6,1.615H279.7a.7.7,0,0,0,0,1.406h5.666l-1.626,1.61A.7.7,0,0,0,283.739,203.823Z" transform="translate(-269.191 -190.074)" fill="#fff"/>
    <path id="Path_67" data-name="Path 67" d="M15.188,1.406h-.914V.7a.7.7,0,1,0-1.406,0v.7h-3.2V.7A.7.7,0,0,0,8.262.7v.7H5.1V.7A.7.7,0,0,0,3.691.7v.7H2.813A2.816,2.816,0,0,0,0,4.219V15.188A2.816,2.816,0,0,0,2.813,18H15.188A2.816,2.816,0,0,0,18,15.188a.7.7,0,1,0-1.406,0,1.408,1.408,0,0,1-1.406,1.406H2.813a1.408,1.408,0,0,1-1.406-1.406V4.219A1.408,1.408,0,0,1,2.813,2.813h.879v.7a.7.7,0,0,0,1.406,0v-.7H8.262v.7a.7.7,0,0,0,1.406,0v-.7h3.2v.7a.7.7,0,0,0,1.406,0v-.7h.914a1.408,1.408,0,0,1,1.406,1.406V5.8A.7.7,0,0,0,18,5.8V4.219A2.816,2.816,0,0,0,15.188,1.406Z" fill="#fff"/>
  </g>
</svg>
