<svg xmlns="http://www.w3.org/2000/svg" width="16" height="22.244" viewBox="0 0 16 22.244">
  <g id="Group_68" data-name="Group 68" transform="translate(0)">
    <g id="Group_67" data-name="Group 67" transform="translate(0)">
      <path id="Path_47" data-name="Path 47" d="M172.667,64a2,2,0,1,0,2,2A2,2,0,0,0,172.667,64Z" transform="translate(-164.667 -58)" fill="#fff"/>
      <path id="Path_57" data-name="Path 57" d="M116.211,20.6c1.894-2.586,6.456-9.167,6.456-12.6a8,8,0,1,0-16,0c0,4.087,6.469,12.646,7.206,13.608.009.011.023.016.032.027a3.45,3.45,0,0,0,.334.266c.005,0,.422.341.427.343ZM108.667,8a6,6,0,1,1,12,0c0,2.546-3.8,8.3-6,11.326C112.469,16.3,108.667,10.546,108.667,8Z" transform="translate(-106.667)" fill="#fff"/>
    </g>
  </g>
</svg>
