<svg xmlns="http://www.w3.org/2000/svg" width="95.604" height="21.989" viewBox="0 0 95.604 21.989">
  <g id="Smart_Web_white" data-name="Smart Web white" transform="translate(2168.102 -3934)">
    <g id="_1536212741664" transform="translate(-2168.101 3934.008)">
      <g id="Group_93" data-name="Group 93" transform="translate(0 0)">
        <path id="Path_70" data-name="Path 70" d="M-923.349,3997h0a4.323,4.323,0,0,0-1.651.383A10.311,10.311,0,0,1-923.349,3997Z" transform="translate(934.331 -3996.535)" fill="rgba(0,0,0,0.6)"/>
        <path id="Path_71" data-name="Path 71" d="M-1732.2,3961.26a4.751,4.751,0,0,1,3.836-1.471.443.443,0,0,1,.015-.1h0c-1.974-.518-8.01,1.111-7.747,5.248A11.99,11.99,0,0,1-1732.2,3961.26Z" transform="translate(1739.35 -3959.413)" fill="rgba(0,0,0,0.6)"/>
        <g id="Group_91" data-name="Group 91" transform="translate(0.134)">
          <path id="Path_72" data-name="Path 72" d="M-1110.907,3935.458h.022a3.952,3.952,0,0,0,1.1-.375c0-.008-.007-.008-.007-.015h-.037a3.811,3.811,0,0,1-.518-.045c-.3-.015-.36-.022-.488-.022h-.5c-.345.022-.353.015-.526.03-.375.038-.39.038-.586.068a11.866,11.866,0,0,0-1.562.338C-1111.252,3934.685-1110.937,3935.323-1110.907,3935.458Z" transform="translate(1121.778 -3935)" fill="rgba(0,0,0,0.6)"/>
          <path id="Path_73" data-name="Path 73" d="M-2149.143,4185.765a12.618,12.618,0,0,1,.961-4.737c-.323-1.637-.278-3.806,2.92-6.028a10.776,10.776,0,0,0-1.4,1.1,11.457,11.457,0,0,0-1.246,1.351,11.845,11.845,0,0,0-1,1.532,10.538,10.538,0,0,0-.736,1.667c-.09.308-.225.713-.3,1.028a6.369,6.369,0,0,0,.833,4.887C-2149.135,4186.306-2149.143,4186.035-2149.143,4185.765Z" transform="translate(2150.112 -4173.198)" fill="rgba(0,0,0,0.6)"/>
        </g>
        <g id="Group_92" data-name="Group 92" transform="translate(0 0.239)">
          <path id="Path_74" data-name="Path 74" d="M-698,3967.1v.007c1.4.255,2.823.443,4.227.706a5.2,5.2,0,0,1,1.284.338h-.008a10.116,10.116,0,0,0-1.434-.713,8.855,8.855,0,0,0-1.021-.36c-.518-.143-.518-.143-.781-.2A19.16,19.16,0,0,0-698,3967.1Z" transform="translate(709.036 -3966.872)" fill="rgba(0,0,0,0.6)"/>
          <path id="Path_75" data-name="Path 75" d="M-2166.431,5515.926A7.131,7.131,0,0,1-2168,5512c.03.36.075.849.128,1.209a10.451,10.451,0,0,0,.458,1.794,11,11,0,0,0,.728,1.682,11.91,11.91,0,0,0,.984,1.524c.173.2.383.48.563.675a10.9,10.9,0,0,0,1.306,1.187A9.007,9.007,0,0,1-2166.431,5515.926Z" transform="translate(2168 -5500.4)" fill="rgba(0,0,0,0.6)"/>
        </g>
        <path id="Path_76" data-name="Path 76" d="M-719,3998h-.023c-.931,1.216,3.393,2.875,6.261,3.979,2.3.886,3.341,1.329,3.671,1.915-.143-.278-.338-.661-.5-.931a11.312,11.312,0,0,0-1.051-1.494,11.7,11.7,0,0,0-1.276-1.3c-.5-.338-1.171-.51-3.4-1.073a31.39,31.39,0,0,1-3.641-1.081C-718.974,3998.015-718.989,3998-719,3998Z" transform="translate(730.032 -3997.527)" fill="rgba(0,0,0,0.6)"/>
        <path id="Path_77" data-name="Path 77" d="M-1159.241,3997.007l-.008-.007a9.781,9.781,0,0,0-2.755.818c-.833.8-2.718,3.791,7.928,8.633,3.453,1.569,5.728,2.6,5.578,3.731l.113-.563a10.533,10.533,0,0,0,.158-1.884,12.617,12.617,0,0,0-.24-2.365l-.075-.345c-.308-.743-1.164-1.186-4.407-2.537C-1161.516,3998.922-1160.57,3997.518-1159.241,3997.007Z" transform="translate(1170.232 -3996.535)" fill="rgba(0,0,0,0.6)"/>
        <path id="Path_78" data-name="Path 78" d="M-1816.464,4270a12.74,12.74,0,0,0-3.536,4.159c1.171,5.1,8.588,8.993,12.912,10.87,2.507,1.089,3.221,1.509,2.755,2.012l.135-.113a11.218,11.218,0,0,0,1.239-1.359,11.814,11.814,0,0,0,1-1.531l.375-.766c.165-.615-.09-1.224-4.88-3.453C-1816.171,4275.285-1817.26,4271.982-1816.464,4270Z" transform="translate(1822.613 -4267.485)" fill="rgba(0,0,0,0.6)"/>
      </g>
    </g>
    <g id="_1536212741696" transform="translate(-2168.102 3934)">
      <g id="Group_94" data-name="Group 94" transform="translate(0 0)">
        <path id="Path_79" data-name="Path 79" d="M-2127.7,3941.462a11.233,11.233,0,0,1,.736-1.667,11.81,11.81,0,0,1,1-1.531,10.689,10.689,0,0,1,1.246-1.351,10.732,10.732,0,0,1,1.4-1.1,11.1,11.1,0,0,1,2.928-1.366,10.835,10.835,0,0,1,1.562-.338c.39-.053.39-.053.585-.067.345-.023.345-.023.525-.03.278-.007.278-.007.5-.007.308.007.308.015.488.03.338.022.338.045.518.045h0c-.1,0-9.812,1.7-11.786,8.423C-2127.91,3942.19-2127.8,3941.762-2127.7,3941.462Z" transform="translate(2128.301 -3934)" fill="rgba(0,0,0,0.6)"/>
        <path id="Path_80" data-name="Path 80" d="M-2165.8,3984.807a10.432,10.432,0,0,1-.983-1.524,10.147,10.147,0,0,1-.728-1.682,10.906,10.906,0,0,1-.458-1.794c-.045-.36-.1-.841-.127-1.208-.008-1.013-.022-3.708,3.3-6.6a26.3,26.3,0,0,1,9.466-4.812c.48-.15.48-.15.533-.188.48.113.5.12.781.2a8.848,8.848,0,0,1,1.021.36,10.618,10.618,0,0,1,1.434.713h.007a.977.977,0,0,0,.09.075c.008.315-.15.435-2.3,1.389-15.9,7.012-14.016,12.875-11.471,15.742C-2165.414,3985.28-2165.646,3985.017-2165.8,3984.807Z" transform="translate(2168.102 -3966.752)" fill="rgba(0,0,0,0.6)"/>
        <path id="Path_81" data-name="Path 81" d="M-1861.357,4305.468c-2.725-1.562-10.1-7.357,9.309-16.486,2.477-1.164,3.243-1.546,2.868-1.982a11.067,11.067,0,0,1,1.276,1.3,10.574,10.574,0,0,1,1.051,1.494c.15.278.36.646.5.931.158.585.015.848-4.347,3.055-19.939,10.09-7.282,12.612-5.811,12.492A8.406,8.406,0,0,1-1861.357,4305.468Z" transform="translate(1867.296 -4284.35)" fill="rgba(0,0,0,0.6)"/>
        <path id="Path_82" data-name="Path 82" d="M-1196.354,5066l.075.345a11.925,11.925,0,0,1,.24,2.365,11.627,11.627,0,0,1-.158,1.885l-.113.563c-.293.766-1.2,1.134-3.4,2.027-11.569,4.692-7.823,6.073-7.365,6.216-3.138-.053-5.488-2.08-2.177-5.248,2.2-2.1,5.8-3.829,8.7-5.21C-1197.375,5067.427-1196.2,5066.781-1196.354,5066Z" transform="translate(1218.043 -5057.502)" fill="rgba(0,0,0,0.6)"/>
        <path id="Path_83" data-name="Path 83" d="M-721.546,6038l-.375.766a10.611,10.611,0,0,1-1,1.531,11.475,11.475,0,0,1-1.239,1.359l-.135.113c-.5.368-1.126.548-3.4,1.111a23.045,23.045,0,0,0-3.911,1.224c-.9-.954,1.471-2.463,7.057-4.482C-722.965,6039.043-721.816,6038.593-721.546,6038Z" transform="translate(742.574 -6022.205)" fill="rgba(0,0,0,0.6)"/>
      </g>
    </g>
    <g id="_1536212739648" transform="translate(-2144.634 3940.202)">
      <path id="Path_84" data-name="Path 84" d="M961.881,4631.782c-1.156-.458-2.2-.833-2.2-1.975,0-.983.833-1.472,1.839-1.472.856,0,1.8.331,1.8.954v.72h1.351v-1.231c0-1.171-1.6-1.779-3.153-1.779-1.742,0-3.318.863-3.318,2.883,0,1.9,1.381,2.507,2.748,3.033,1.269.518,2.485.931,2.485,2.177,0,1.059-.848,1.637-2.034,1.637-1.081,0-2.042-.473-2.042-1.261v-.766H958v1.1c0,1.532,1.787,2.275,3.4,2.275,1.914,0,3.521-1.066,3.521-3.116C964.922,4632.983,963.405,4632.375,961.881,4631.782Z" transform="translate(-958 -4627)" fill="rgba(0,0,0,0.6)"/>
      <path id="Path_85" data-name="Path 85" d="M2088.836,4786.581c-.555,0-1.561-.2-1.561-1.765v-3.386h1.771v-1.449h-1.771V4778h-1.457v1.982h-2.132a2.632,2.632,0,0,0-2.342,1.982h-.03a4.746,4.746,0,0,0,.023-.5v-.488c0-.623-.3-.894-.938-.894h-1.674v1.141h.923a.294.294,0,0,1,.33.331v5.1h-2.41l-3-6.884h-1.554l-3,6.884h-1.5v-3.806c0-1.959-.788-2.928-2.432-2.928a2.9,2.9,0,0,0-2.665,1.832h-.03a2.011,2.011,0,0,0-2.162-1.84,3,3,0,0,0-2.643,1.84h-.022a1.692,1.692,0,0,0,.052-.428v-.39c0-.563-.323-.849-.946-.849H2056v1.141h.893c.2,0,.353.1.353.315v5.112H2056.1v1.141h3.753v-1.141H2058.6v-2.365c0-1.509.833-3.055,2.237-3.055,1.141,0,1.306.931,1.306,1.929v4.632h2.6v-1.141H2063.6v-2.432c0-1.517.773-2.988,2.162-2.988,1.111,0,1.284.848,1.284,1.929v4.632h5.42v-1.141h-1.081l.338-.8v-.016l1.186-2.83h0v-.007l.691-1.577a3.518,3.518,0,0,0,.165-.615h.037a2.417,2.417,0,0,0,.165.615l.743,1.719.931,2.29c.008,0,.008.015.008.015l.51,1.2h-1.088v1.141h7.4v-1.141h-1.043v-2.064c0-1.5.646-3.153,2.23-3.153.1,0,1.111-.008,2.155-.008v3.528a2.586,2.586,0,0,0,2.823,2.868,3.821,3.821,0,0,0,.51-.03v-1.231A2.548,2.548,0,0,1,2088.836,4786.581Z" transform="translate(-2047.757 -4776.866)" fill="rgba(0,0,0,0.6)"/>
    </g>
    <path id="Path_86" data-name="Path 86" d="M6526,4651h3.679v1.171h-1.231l1.614,7.027c.075.383.112.8.112.8h.045s.061-.42.15-.8l2.162-8.2h1.246l2.154,8.2a5.231,5.231,0,0,1,.143.8h.061a7.8,7.8,0,0,1,.1-.8l1.606-7.027h-1.224V4651h3.686v1.171h-.991L6537,4661.72h-1.667l-2.019-7.6a5,5,0,0,1-.135-.848h-.06a4.615,4.615,0,0,1-.127.848l-2.02,7.6H6529.3l-2.3-9.549h-1Z" transform="translate(-8628.834 -710.617)" fill="rgba(0,0,0,0.6)"/>
    <path id="Path_87" data-name="Path 87" d="M9459.246,4652.141H9458V4651h2.665v3.551a4.306,4.306,0,0,1-.045.638h.03a2.671,2.671,0,0,1,2.387-1.336c2,0,3.266,1.644,3.266,4.024,0,2.448-1.418,4.024-3.385,4.024a2.59,2.59,0,0,1-2.343-1.4h-.03a4.137,4.137,0,0,1,.045.608v.608h-1.344Zm3.483,8.483h0c1.156,0,2.125-.983,2.125-2.732,0-1.667-.863-2.748-2.095-2.748-1.1,0-2.14.8-2.14,2.763C9460.62,4659.273,9461.311,4660.624,9462.729,4660.624Z" transform="translate(-11538.822 -711.617)" fill="rgba(0,0,0,0.6)"/>
    <g id="_1536212738720" transform="translate(-2087.91 3942.941)">
      <path id="Path_88" data-name="Path 88" d="M8520.043,5126.043H8514V5125h6.043Z" transform="translate(-8514 -5125)" fill="rgba(0,0,0,0.6)"/>
      <path id="Path_89" data-name="Path 89" d="M8520.043,5932.141H8514V5931h6.043Z" transform="translate(-8514 -5924.949)" fill="rgba(0,0,0,0.6)"/>
      <path id="Path_90" data-name="Path 90" d="M8520.043,5542.728H8514V5542h6.043Z" transform="translate(-8514 -5538.87)" fill="rgba(0,0,0,0.6)"/>
    </g>
    <g id="_1536212735776" transform="translate(-2144.566 3951.604)">
      <path id="Path_91" data-name="Path 91" d="M967,6284.719h.233l.12-1.509h-.233V6283h.526l.473,1.179c.03.082.045.143.045.143h.008a.712.712,0,0,1,.038-.143l.48-1.179h.526v.21h-.233l.113,1.509h.233v.21h-.713v-.21h.225l-.09-1.156c0-.06.008-.158.008-.158h-.008a.821.821,0,0,1-.037.15l-.428,1.013h-.233l-.428-1.013a1.182,1.182,0,0,1-.045-.15h-.008a.74.74,0,0,1,.008.158l-.083,1.156h.225v.21H967Z" transform="translate(-967 -6282.97)" fill="rgba(0,0,0,0.6)"/>
      <path id="Path_92" data-name="Path 92" d="M1302.781,6352.563h.083v-.053a.256.256,0,0,0-.285-.293.7.7,0,0,0-.383.135l-.105-.187a.841.841,0,0,1,.51-.165.469.469,0,0,1,.518.533v.615c0,.045.023.061.06.061h.135v.2h-.27c-.12,0-.165-.06-.165-.149v-.016a.5.5,0,0,1,.007-.09h0a.5.5,0,0,1-.443.293.415.415,0,0,1-.443-.421C1302,6352.593,1302.556,6352.563,1302.781,6352.563Zm-.285.675h0a.416.416,0,0,0,.368-.443v-.06h-.068c-.12,0-.541.007-.541.27A.227.227,0,0,0,1302.5,6353.239Z" transform="translate(-1299.485 -6351.452)" fill="rgba(0,0,0,0.6)"/>
      <path id="Path_93" data-name="Path 93" d="M1495.015,6284.727h.21v-1.517H1495V6283h.473v1.081h.2l.27-.323h-.173v-.21h.6v.21h-.173l-.33.4h0a.288.288,0,0,1,.1.112l.225.405c.03.045.045.053.12.053h.083v.2h-.2a.19.19,0,0,1-.218-.127l-.263-.466a.129.129,0,0,0-.128-.053h-.105v.443h.18v.2h-.638Z" transform="translate(-1491.036 -6282.97)" fill="rgba(0,0,0,0.6)"/>
      <path id="Path_94" data-name="Path 94" d="M1704.668,6352a.577.577,0,0,1,.571.646c0,.038-.008.105-.008.105h-.976a.462.462,0,0,0,.465.465.647.647,0,0,0,.4-.15l.1.188a.8.8,0,0,1-.518.2.692.692,0,0,1-.706-.729A.665.665,0,0,1,1704.668,6352Zm.308.578h0c-.007-.24-.15-.368-.315-.368a.4.4,0,0,0-.39.368Z" transform="translate(-1698.467 -6351.452)" fill="rgba(0,0,0,0.6)"/>
      <path id="Path_95" data-name="Path 95" d="M1991.24,6280.381v.143c0,.143.173.225.368.225.218,0,.368-.1.368-.293,0-.225-.218-.3-.443-.39-.248-.1-.5-.2-.5-.548s.278-.518.593-.518c.278,0,.563.112.563.323v.225h-.24v-.135c0-.113-.165-.173-.323-.173-.18,0-.323.09-.323.263,0,.21.188.278.39.36.278.105.548.218.548.57a.573.573,0,0,1-.638.563c-.285,0-.608-.136-.608-.413v-.2Z" transform="translate(-1983.313 -6279)" fill="rgba(0,0,0,0.6)"/>
      <path id="Path_96" data-name="Path 96" d="M2189.007,6353.209h.21v-.916c0-.038-.023-.053-.06-.053H2189v-.21h.3c.113,0,.165.052.165.157v.068a.475.475,0,0,1-.007.083h.007a.54.54,0,0,1,.473-.338.359.359,0,0,1,.39.323h.007a.523.523,0,0,1,.473-.323c.293,0,.436.18.436.533v.676h.21v.2h-.466v-.825c0-.2-.037-.346-.233-.346-.255,0-.4.263-.4.541v.428h.21v.2h-.465v-.825c0-.181-.022-.346-.233-.346-.248,0-.4.278-.4.548v.421h.21v.2h-.676Z" transform="translate(-2179.826 -6351.452)" fill="rgba(0,0,0,0.6)"/>
      <path id="Path_97" data-name="Path 97" d="M2536.781,6352.563h.083v-.053a.256.256,0,0,0-.285-.293.7.7,0,0,0-.383.135l-.105-.187a.842.842,0,0,1,.511-.165.469.469,0,0,1,.518.533v.615c0,.045.023.061.06.061h.135v.2h-.27c-.12,0-.165-.06-.165-.149v-.016a.512.512,0,0,1,.007-.09h0a.5.5,0,0,1-.443.293.415.415,0,0,1-.443-.421C2536,6352.593,2536.555,6352.563,2536.781,6352.563Zm-.285.675h0a.416.416,0,0,0,.368-.443v-.06h-.068c-.12,0-.533.007-.533.27A.22.22,0,0,0,2536.5,6353.239Z" transform="translate(-2524.221 -6351.452)" fill="rgba(0,0,0,0.6)"/>
      <path id="Path_98" data-name="Path 98" d="M2734.022,6355.193h.2v-.908c0-.045-.022-.06-.06-.06H2734v-.21h.3c.113,0,.173.053.173.166v.083a.546.546,0,0,1-.008.1h.008a.453.453,0,0,1,.42-.36.426.426,0,0,1,.068.007v.263a.451.451,0,0,0-.075-.007c-.285,0-.405.293-.405.563v.368h.2v.2h-.653Z" transform="translate(-2720.735 -6353.437)" fill="rgba(0,0,0,0.6)"/>
      <path id="Path_99" data-name="Path 99" d="M2874.225,6306.585H2874v-.21h.233V6306h.248v.375h.323v.21h-.323v.646c0,.278.188.315.285.315h.06v.217a.488.488,0,0,1-.09.008.465.465,0,0,1-.511-.518Z" transform="translate(-2859.684 -6305.797)" fill="rgba(0,0,0,0.6)"/>
      <path id="Path_100" data-name="Path 100" d="M3099.953,6279c.225,0,.706.083.706.383v.232h-.24v-.15c0-.166-.285-.233-.458-.233a.694.694,0,0,0-.691.743.721.721,0,0,0,.706.781c.135,0,.466-.045.466-.226v-.15h.248v.233c0,.285-.465.383-.728.383a.969.969,0,0,1-.961-1.006A.95.95,0,0,1,3099.953,6279Z" transform="translate(-3082.995 -6279)" fill="rgba(0,0,0,0.6)"/>
      <path id="Path_101" data-name="Path 101" d="M3353.008,6284.727h.218v-1.517H3353V6283h.473v.721a.746.746,0,0,1-.008.112h.008a.551.551,0,0,1,.5-.315c.315,0,.458.181.458.533v.676h.21v.2h-.466v-.818c0-.195-.037-.353-.248-.353a.482.482,0,0,0-.45.525v.443h.21v.2h-.676Z" transform="translate(-3335.088 -6282.97)" fill="rgba(0,0,0,0.6)"/>
      <path id="Path_102" data-name="Path 102" d="M3594.721,6352a.725.725,0,1,1-.721.721A.707.707,0,0,1,3594.721,6352Zm0,1.216h0a.5.5,0,1,0-.458-.5A.465.465,0,0,0,3594.721,6353.216Z" transform="translate(-3574.279 -6351.452)" fill="rgba(0,0,0,0.6)"/>
      <path id="Path_103" data-name="Path 103" d="M3813.015,6284.727h.21v-.969H3813v-.21h.48v1.179h.21v.2h-.676Zm.2-1.727h.27v.27h-.27Z" transform="translate(-3791.635 -6282.97)" fill="rgba(0,0,0,0.6)"/>
      <path id="Path_104" data-name="Path 104" d="M3928.713,6352c.2,0,.518.075.518.315v.165h-.225v-.09c0-.113-.173-.165-.285-.165a.456.456,0,0,0-.458.5.463.463,0,0,0,.473.5.7.7,0,0,0,.428-.172l.1.188a.8.8,0,0,1-.541.218.725.725,0,0,1-.008-1.449Z" transform="translate(-3905.771 -6351.452)" fill="rgba(0,0,0,0.6)"/>
      <path id="Path_105" data-name="Path 105" d="M4123.668,6352a.583.583,0,0,1,.578.646c0,.038-.007.105-.007.105h-.976a.456.456,0,0,0,.458.465.646.646,0,0,0,.4-.15l.1.188a.777.777,0,0,1-.518.2.692.692,0,0,1-.706-.729A.665.665,0,0,1,4123.668,6352Zm.315.578h0a.333.333,0,0,0-.323-.368.4.4,0,0,0-.39.368Z" transform="translate(-4099.308 -6351.452)" fill="rgba(0,0,0,0.6)"/>
    </g>
    <g id="_1536212732864" transform="translate(-2076.596 3934.991)">
      <path id="Path_106" data-name="Path 106" d="M10021.436,4067.719h.232v-1.494h-.436v.3H10021V4066h1.6v.525h-.233v-.3h-.435v1.494h.232v.21h-.729Z" transform="translate(-10021 -4066)" fill="rgba(0,0,0,0.6)"/>
      <path id="Path_107" data-name="Path 107" d="M10257,4067.719h.232l.121-1.509h-.241V4066h.533l.473,1.179a1.1,1.1,0,0,1,.045.135h.008a.615.615,0,0,1,.038-.135l.48-1.179h.525v.21h-.24l.12,1.509h.232v.21h-.714v-.21h.219l-.083-1.156c0-.06.008-.157.008-.157h-.008s-.022.1-.037.15l-.429,1.013h-.232l-.428-1.013a1.185,1.185,0,0,1-.045-.15h-.008a.709.709,0,0,1,.008.157l-.083,1.156h.226v.21H10257Z" transform="translate(-10255.229 -4066)" fill="rgba(0,0,0,0.6)"/>
    </g>
  </g>
</svg>
